# Blender v2.76 (sub 0) OBJ File: ''
# www.blender.org
mtllib 001Flat.mtl
o Plane
v -3.000000 0.000000 3.000000
v 3.000000 0.000000 3.000000
v -3.000000 0.000000 -3.000000
v 3.000000 0.000000 -3.000000
v -3.000000 1.000000 -3.000000
v -3.000000 1.000000 3.000000
v 3.000000 1.000000 3.000000
v 3.000000 1.000000 -3.000000
vt 0.000000 0.000000
vt 1.000000 0.000000
vt 1.000000 1.000000
vt 0.000000 1.000000
vn 0.000000 -1.000000 0.000000
vn 0.000000 1.000000 0.000000
vn 0.000000 0.000000 -1.000000
vn 0.000000 0.000000 1.000000
vn 1.000000 0.000000 0.000000
vn -1.000000 0.000000 0.000000
usemtl None
s off
f 1/1/1 3/2/1 4/3/1 2/4/1
f 6/4/2 7/1/2 8/2/2 5/3/2
f 4/1/3 3/2/3 5/3/3 8/4/3
f 1/1/4 2/2/4 7/3/4 6/4/4
f 2/1/5 4/2/5 8/3/5 7/4/5
f 3/1/6 1/2/6 6/3/6 5/4/6
