# Blender v2.76 (sub 0) OBJ File: ''
# www.blender.org
mtllib 002Half.mtl
o Plane
v -3.000000 0.000000 3.000000
v 3.000000 0.000000 3.000000
v -3.000000 0.000000 -3.000000
v 3.000000 0.000000 -3.000000
v -3.000000 3.000000 -3.000000
v -3.000000 3.000000 3.000000
v 3.000000 3.000000 3.000000
v 3.000000 3.000000 -3.000000
vt 0.500000 1.000000
vt 0.000000 1.000000
vt 0.000000 0.500000
vt 0.500000 0.500000
vt 0.000000 0.000000
vt 0.500000 0.000000
vt 1.000000 0.000000
vt 1.000000 0.500000
vt 0.833333 0.500000
vt 0.833333 0.000000
vt 0.666667 0.500000
vt 0.666667 0.000000
vt 0.833333 1.000000
vt 0.666667 1.000000
vn 0.000000 -1.000000 0.000000
vn 0.000000 1.000000 0.000000
vn 0.000000 0.000000 -1.000000
vn 0.000000 0.000000 1.000000
vn 1.000000 0.000000 0.000000
vn -1.000000 0.000000 0.000000
usemtl None
s off
f 1/1/1 3/2/1 4/3/1 2/4/1
f 6/3/2 7/5/2 8/6/2 5/4/2
f 4/7/3 3/8/3 5/9/3 8/10/3
f 1/11/4 2/12/4 7/10/4 6/9/4
f 2/12/5 4/11/5 8/4/5 7/6/5
f 3/9/6 1/13/6 6/14/6 5/11/6
