# Blender v2.76 (sub 0) OBJ File: ''
# www.blender.org
mtllib 005HalfRamp.mtl
o Plane
v -3.000000 0.000000 3.000000
v 3.000000 0.000000 3.000000
v -3.000000 0.000000 -3.000000
v 3.000000 0.000000 -3.000000
v -3.000000 3.000000 -3.000000
v 3.000000 3.000000 -3.000000
vt 1.000000 0.447214
vt 0.500000 0.447214
vt 0.500000 0.000000
vt 1.000000 0.000000
vt 0.750000 0.447214
vt 0.750000 0.894427
vt 0.500000 0.894427
vt 0.500000 0.500000
vt 0.000000 0.500000
vt 0.000000 0.000000
vt 1.000000 0.894427
vt 0.000000 0.900000
vt 0.223607 0.500000
vt 0.223607 1.000000
vn 0.000000 -1.000000 0.000000
vn 0.000000 0.000000 -1.000000
vn 0.000000 0.894400 0.447200
vn 1.000000 0.000000 0.000000
vn -1.000000 0.000000 0.000000
usemtl None
s off
f 1/1/1 3/2/1 4/3/1 2/4/1
f 4/5/2 3/6/2 5/7/2 6/2/2
f 1/8/3 2/9/3 6/10/3 5/3/3
f 2/1/4 4/11/4 6/6/4
f 3/12/5 1/13/5 5/14/5
