# Blender v2.76 (sub 0) OBJ File: ''
# www.blender.org
mtllib 006FullRamp.mtl
o Plane
v -3.000000 0.000000 3.000000
v 3.000000 0.000000 3.000000
v -3.000000 0.000000 -3.000000
v 3.000000 0.000000 -3.000000
v -3.000000 6.000000 -3.000000
v 3.000000 6.000000 -3.000000
vt 0.666667 0.828427
vt 0.333333 0.828427
vt 0.333333 0.414214
vt 0.666667 0.414214
vt 1.000000 0.000000
vt 1.000000 0.414214
vt 0.666667 0.000000
vt 0.333333 0.585786
vt 0.000000 0.585786
vt 0.000000 0.000000
vt 0.333333 0.000000
vt 0.666667 0.707107
vt 0.902369 0.414214
vt 0.902369 1.000000
vn 0.000000 -1.000000 0.000000
vn 0.000000 0.000000 -1.000000
vn 0.000000 0.707100 0.707100
vn 1.000000 0.000000 0.000000
vn -1.000000 0.000000 0.000000
usemtl None
s off
f 1/1/1 3/2/1 4/3/1 2/4/1
f 4/5/2 3/6/2 5/4/2 6/7/2
f 1/8/3 2/9/3 6/10/3 5/11/3
f 2/7/4 4/4/4 6/3/4
f 3/12/5 1/13/5 5/14/5
