# Blender v2.76 (sub 0) OBJ File: ''
# www.blender.org
mtllib 007FullRamp.mtl
o Plane
v -3.000000 0.000000 3.000000
v 3.000000 0.000000 3.000000
v -3.000000 0.000000 -3.000000
v 3.000000 0.000000 -3.000000
v -0.300000 6.000000 -0.300000
v -0.300000 6.000000 0.300000
v 0.300000 6.000000 0.300000
v 0.300000 6.000000 -0.300000
vt 1.000000 1.000000
vt 0.000000 1.000000
vt 0.000000 0.500000
vt 1.000000 0.500000
vt 0.450000 0.275000
vt 0.450000 0.225000
vt 0.550000 0.225000
vt 0.550000 0.275000
vt 1.000000 0.000000
vt 0.000000 0.000000
vn 0.000000 -1.000000 0.000000
vn 0.000000 1.000000 0.000000
vn 0.000000 0.410400 -0.911900
vn 0.000000 0.410400 0.911900
vn 0.911900 0.410400 0.000000
vn -0.911900 0.410400 0.000000
usemtl None
s off
f 1/1/1 3/2/1 4/3/1 2/4/1
f 6/5/2 7/6/2 8/7/2 5/8/2
f 4/9/3 3/4/3 5/8/3 8/7/3
f 1/3/4 2/10/4 7/6/4 6/5/4
f 2/10/5 4/9/5 8/7/5 7/6/5
f 3/4/6 1/3/6 6/5/6 5/8/6
