# Blender v2.76 (sub 0) OBJ File: ''
# www.blender.org
mtllib 009HalfPyramid.mtl
o Plane
v -3.000000 0.000000 3.000000
v 3.000000 0.000000 3.000000
v -3.000000 0.000000 -3.000000
v 3.000000 0.000000 -3.000000
v 0.000000 3.000000 0.000000
vt 0.550510 0.535898
vt 0.000000 0.535899
vt 0.000000 0.000000
vt 0.550510 0.000000
vt 0.550510 0.464102
vt 0.939780 0.464102
vt 0.939780 0.732051
vt 0.939780 1.000000
vt 0.550510 1.000000
vt 0.550510 0.309401
vt 1.000000 0.000000
vt 1.000000 0.464102
vn 0.000000 -1.000000 0.000000
vn 0.000000 0.707100 -0.707100
vn 0.000000 0.707100 0.707100
vn 0.707100 0.707100 0.000000
vn -0.707100 0.707100 0.000000
usemtl None
s off
f 1/1/1 3/2/1 4/3/1 2/4/1
f 4/5/2 3/6/2 5/7/2
f 1/8/3 2/9/3 5/7/3
f 2/9/4 4/5/4 5/7/4
f 3/10/5 1/11/5 5/12/5
