# Blender v2.76 (sub 0) OBJ File: ''
# www.blender.org
mtllib Actor.mtl
o Cube
v 0.296564 0.000000 -0.296564
v -0.296564 0.000000 -0.296564
v 0.296564 0.000000 0.296564
v -0.296564 0.000000 0.296564
v 0.500000 1.000000 -0.500000
v -0.500000 1.000000 -0.500000
v 0.500000 1.000000 0.500000
v -0.500000 1.000000 0.500000
v 0.500000 2.000000 -0.500000
v -0.500000 2.000000 -0.500000
v 0.500000 2.000000 0.500000
v -0.500000 2.000000 0.500000
v 0.300000 2.000000 -0.300000
v -0.300000 2.000000 -0.300000
v 0.300000 2.000000 0.300000
v -0.300000 2.000000 0.300000
v 0.300000 2.588350 -0.300000
v -0.300000 2.588350 -0.300000
v 0.300000 2.588350 0.300000
v -0.300000 2.588350 0.300000
vt 0.546759 0.997859
vt 0.546759 0.813033
vt 0.695042 0.813033
vt 0.695042 0.997859
vt 0.250000 0.315148
vt 0.500000 0.315148
vt 0.500000 0.626066
vt 0.250000 0.626066
vt 0.699141 0.626065
vt 0.550859 0.626065
vt 0.500000 0.310917
vt 0.750000 0.310917
vt 0.300859 0.000000
vt 0.449141 0.000000
vt 0.800859 0.000000
vt 0.949141 0.000000
vt 1.000000 0.315148
vt 0.750000 0.315148
vt 0.199141 0.626066
vt 0.050859 0.626066
vt 0.000000 0.310917
vt 0.250000 0.310917
vt 1.000000 0.626065
vt 0.750000 0.626065
vt 0.000000 0.000000
vt 0.250000 0.000000
vt 0.500000 0.000000
vt 0.750000 0.000000
vt 0.400000 0.813033
vt 0.400000 0.626066
vt 0.546759 0.626066
vt 0.250000 0.813033
vt 0.396759 1.000000
vt 0.396759 0.813033
vt 0.543519 0.813033
vt 0.543519 1.000000
vt 0.693519 0.626066
vt 0.693519 0.813033
vt 0.250000 1.000000
vt 0.250000 0.937678
vt 0.000000 0.937678
vt 0.050000 0.875355
vt 0.200000 0.875355
vt 0.000000 0.626066
vt 0.200000 0.688388
vt 0.050000 0.688388
vn 0.000000 -1.000000 0.000000
vn -1.000000 0.000000 0.000000
vn 0.000000 -0.199400 -0.979900
vn -0.979900 -0.199400 0.000000
vn 0.979900 -0.199400 0.000000
vn 0.000000 -0.199400 0.979900
vn 1.000000 0.000000 0.000000
vn 0.000000 0.000000 1.000000
vn 0.000000 0.000000 -1.000000
vn 0.000000 1.000000 0.000000
usemtl Material
s off
f 4/1/1 2/2/1 1/3/1 3/4/1
f 6/5/2 8/6/2 12/7/2 10/8/2
f 1/9/3 2/10/3 6/11/3 5/12/3
f 2/13/4 4/14/4 8/6/4 6/5/4
f 3/15/5 1/16/5 5/17/5 7/18/5
f 4/19/6 3/20/6 7/21/6 8/22/6
f 7/18/7 5/17/7 9/23/7 11/24/7
f 8/22/8 7/21/8 11/25/8 12/26/8
f 5/12/9 6/11/9 10/27/9 9/28/9
f 16/29/8 15/30/8 19/31/8 20/2/8
f 20/8/10 19/30/10 17/29/10 18/32/10
f 13/33/9 14/34/9 18/35/9 17/36/9
f 14/37/2 16/38/2 20/2/2 18/31/2
f 15/34/7 13/33/7 17/39/7 19/32/7
f 10/40/10 12/41/10 16/42/10 14/43/10
f 11/44/10 9/8/10 13/45/10 15/46/10
f 12/41/10 11/44/10 15/46/10 16/42/10
f 9/8/10 10/40/10 14/43/10 13/45/10
