# Blender v2.79 (sub 0) OBJ File: ''
# www.blender.org
mtllib Rifle.mtl
o Cube_Cube.001
v 0.256679 0.256679 0.256679
v -0.256679 0.256679 0.256679
v -0.256679 -0.256679 0.256679
v 0.256679 -0.256679 0.256679
v -0.256679 0.256679 -2.147530
v -0.256679 -0.256679 -2.147530
v 0.256679 0.256679 -2.147530
v 0.256679 -0.256679 -2.147530
vn 0.0000 0.0000 1.0000
vn -1.0000 0.0000 0.0000
vn 0.0000 0.0000 -1.0000
vn 1.0000 -0.0000 -0.0000
vn 0.0000 -1.0000 0.0000
vn 0.0000 1.0000 0.0000
usemtl None
s 1
f 1//1 2//1 3//1 4//1
f 2//2 5//2 6//2 3//2
f 5//3 7//3 8//3 6//3
f 7//4 1//4 4//4 8//4
f 4//5 3//5 6//5 8//5
f 7//6 5//6 2//6 1//6
